<svg class="main-svg" xmlns="http://www.w3.org/2000/svg" xmlns:xlink="http://www.w3.org/1999/xlink" width="850" height="400" style="" viewBox="0 0 850 400"><rect x="0" y="0" width="850" height="400" style="fill: rgb(255, 255, 255); fill-opacity: 1;"/><defs id="defs-02e891"><g class="clips"><clipPath id="clip02e891xyplot" class="plotclip"><rect width="605" height="171"/></clipPath><clipPath class="axesclip" id="clip02e891x"><rect x="80" y="0" width="605" height="400"/></clipPath><clipPath class="axesclip" id="clip02e891y"><rect x="0" y="100" width="850" height="171"/></clipPath><clipPath class="axesclip" id="clip02e891xy"><rect x="80" y="100" width="605" height="171"/></clipPath></g><g class="gradients"/></defs><g class="bglayer"><rect class="bg" x="80" y="100" width="605" height="171" style="fill: rgb(229, 236, 246); fill-opacity: 1; stroke-width: 0;"/></g><g class="layer-below"><g class="imagelayer"/><g class="shapelayer"/></g><g class="cartesianlayer"><g class="subplot xy"><g class="layer-subplot"><g class="shapelayer"/><g class="imagelayer"/></g><g class="gridlayer"><g class="x"><path class="xgrid crisp" transform="translate(96.58,0)" d="M0,100v171" style="stroke: rgb(255, 255, 255); stroke-opacity: 1; stroke-width: 1px;"/><path class="xgrid crisp" transform="translate(113.15,0)" d="M0,100v171" style="stroke: rgb(255, 255, 255); stroke-opacity: 1; stroke-width: 1px;"/><path class="xgrid crisp" transform="translate(129.73,0)" d="M0,100v171" style="stroke: rgb(255, 255, 255); stroke-opacity: 1; stroke-width: 1px;"/><path class="xgrid crisp" transform="translate(146.3,0)" d="M0,100v171" style="stroke: rgb(255, 255, 255); stroke-opacity: 1; stroke-width: 1px;"/><path class="xgrid crisp" transform="translate(162.88,0)" d="M0,100v171" style="stroke: rgb(255, 255, 255); stroke-opacity: 1; stroke-width: 1px;"/><path class="xgrid crisp" transform="translate(179.45,0)" d="M0,100v171" style="stroke: rgb(255, 255, 255); stroke-opacity: 1; stroke-width: 1px;"/><path class="xgrid crisp" transform="translate(196.03,0)" d="M0,100v171" style="stroke: rgb(255, 255, 255); stroke-opacity: 1; stroke-width: 1px;"/><path class="xgrid crisp" transform="translate(212.6,0)" d="M0,100v171" style="stroke: rgb(255, 255, 255); stroke-opacity: 1; stroke-width: 1px;"/><path class="xgrid crisp" transform="translate(229.18,0)" d="M0,100v171" style="stroke: rgb(255, 255, 255); stroke-opacity: 1; stroke-width: 1px;"/><path class="xgrid crisp" transform="translate(245.75,0)" d="M0,100v171" style="stroke: rgb(255, 255, 255); stroke-opacity: 1; stroke-width: 1px;"/><path class="xgrid crisp" transform="translate(262.33000000000004,0)" d="M0,100v171" style="stroke: rgb(255, 255, 255); stroke-opacity: 1; stroke-width: 1px;"/><path class="xgrid crisp" transform="translate(278.9,0)" d="M0,100v171" style="stroke: rgb(255, 255, 255); stroke-opacity: 1; stroke-width: 1px;"/><path class="xgrid crisp" transform="translate(295.48,0)" d="M0,100v171" style="stroke: rgb(255, 255, 255); stroke-opacity: 1; stroke-width: 1px;"/><path class="xgrid crisp" transform="translate(312.05,0)" d="M0,100v171" style="stroke: rgb(255, 255, 255); stroke-opacity: 1; stroke-width: 1px;"/><path class="xgrid crisp" transform="translate(328.63,0)" d="M0,100v171" style="stroke: rgb(255, 255, 255); stroke-opacity: 1; stroke-width: 1px;"/><path class="xgrid crisp" transform="translate(345.21,0)" d="M0,100v171" style="stroke: rgb(255, 255, 255); stroke-opacity: 1; stroke-width: 1px;"/><path class="xgrid crisp" transform="translate(361.78,0)" d="M0,100v171" style="stroke: rgb(255, 255, 255); stroke-opacity: 1; stroke-width: 1px;"/><path class="xgrid crisp" transform="translate(378.36,0)" d="M0,100v171" style="stroke: rgb(255, 255, 255); stroke-opacity: 1; stroke-width: 1px;"/><path class="xgrid crisp" transform="translate(394.93,0)" d="M0,100v171" style="stroke: rgb(255, 255, 255); stroke-opacity: 1; stroke-width: 1px;"/><path class="xgrid crisp" transform="translate(411.51,0)" d="M0,100v171" style="stroke: rgb(255, 255, 255); stroke-opacity: 1; stroke-width: 1px;"/><path class="xgrid crisp" transform="translate(428.08,0)" d="M0,100v171" style="stroke: rgb(255, 255, 255); stroke-opacity: 1; stroke-width: 1px;"/><path class="xgrid crisp" transform="translate(444.66,0)" d="M0,100v171" style="stroke: rgb(255, 255, 255); stroke-opacity: 1; stroke-width: 1px;"/><path class="xgrid crisp" transform="translate(461.23,0)" d="M0,100v171" style="stroke: rgb(255, 255, 255); stroke-opacity: 1; stroke-width: 1px;"/><path class="xgrid crisp" transform="translate(477.81,0)" d="M0,100v171" style="stroke: rgb(255, 255, 255); stroke-opacity: 1; stroke-width: 1px;"/><path class="xgrid crisp" transform="translate(494.38,0)" d="M0,100v171" style="stroke: rgb(255, 255, 255); stroke-opacity: 1; stroke-width: 1px;"/><path class="xgrid crisp" transform="translate(510.96,0)" d="M0,100v171" style="stroke: rgb(255, 255, 255); stroke-opacity: 1; stroke-width: 1px;"/><path class="xgrid crisp" transform="translate(527.53,0)" d="M0,100v171" style="stroke: rgb(255, 255, 255); stroke-opacity: 1; stroke-width: 1px;"/><path class="xgrid crisp" transform="translate(544.11,0)" d="M0,100v171" style="stroke: rgb(255, 255, 255); stroke-opacity: 1; stroke-width: 1px;"/><path class="xgrid crisp" transform="translate(560.6800000000001,0)" d="M0,100v171" style="stroke: rgb(255, 255, 255); stroke-opacity: 1; stroke-width: 1px;"/><path class="xgrid crisp" transform="translate(577.26,0)" d="M0,100v171" style="stroke: rgb(255, 255, 255); stroke-opacity: 1; stroke-width: 1px;"/><path class="xgrid crisp" transform="translate(593.84,0)" d="M0,100v171" style="stroke: rgb(255, 255, 255); stroke-opacity: 1; stroke-width: 1px;"/><path class="xgrid crisp" transform="translate(610.41,0)" d="M0,100v171" style="stroke: rgb(255, 255, 255); stroke-opacity: 1; stroke-width: 1px;"/><path class="xgrid crisp" transform="translate(626.99,0)" d="M0,100v171" style="stroke: rgb(255, 255, 255); stroke-opacity: 1; stroke-width: 1px;"/><path class="xgrid crisp" transform="translate(643.56,0)" d="M0,100v171" style="stroke: rgb(255, 255, 255); stroke-opacity: 1; stroke-width: 1px;"/><path class="xgrid crisp" transform="translate(660.14,0)" d="M0,100v171" style="stroke: rgb(255, 255, 255); stroke-opacity: 1; stroke-width: 1px;"/><path class="xgrid crisp" transform="translate(676.71,0)" d="M0,100v171" style="stroke: rgb(255, 255, 255); stroke-opacity: 1; stroke-width: 1px;"/></g><g class="y"><path class="ygrid crisp" transform="translate(0,223.98000000000002)" d="M80,0h605" style="stroke: rgb(255, 255, 255); stroke-opacity: 1; stroke-width: 1px;"/><path class="ygrid crisp" transform="translate(0,185.5)" d="M80,0h605" style="stroke: rgb(255, 255, 255); stroke-opacity: 1; stroke-width: 1px;"/><path class="ygrid crisp" transform="translate(0,147.03)" d="M80,0h605" style="stroke: rgb(255, 255, 255); stroke-opacity: 1; stroke-width: 1px;"/><path class="ygrid crisp" transform="translate(0,108.55)" d="M80,0h605" style="stroke: rgb(255, 255, 255); stroke-opacity: 1; stroke-width: 1px;"/></g></g><g class="zerolinelayer"><path class="yzl zl crisp" transform="translate(0,262.45)" d="M80,0h605" style="stroke: rgb(255, 255, 255); stroke-opacity: 1; stroke-width: 2px;"/></g><path class="xlines-below"/><path class="ylines-below"/><g class="overlines-below"/><g class="xaxislayer-below"/><g class="yaxislayer-below"/><g class="overaxes-below"/><g class="plot" transform="translate(80, 100)" clip-path="url('#clip02e891xyplot')"><g class="scatterlayer mlayer"><g class="trace scatter trace38a8bd" style="stroke-miterlimit: 2; opacity: 0.8;"><g class="fills"/><g class="errorbars"/><g class="lines"><path class="js-line" d="M0,162.45L605,162.45" style="vector-effect: non-scaling-stroke; fill: none; stroke: rgb(255, 0, 0); stroke-opacity: 1; stroke-width: 2px; opacity: 1;"/></g><g class="points"/><g class="text"/></g><g class="trace scatter trace330a2c" style="stroke-miterlimit: 2; opacity: 0.8;"><g class="fills"/><g class="errorbars"/><g class="lines"><path class="js-line" d="M0,162.45L8.29,85.5L16.58,85.5L66.3,85.5L74.59,162.45L91.16,162.45L99.45,85.5L107.74,85.5L116.03,162.45L124.32,162.45L132.6,85.5L149.18,85.5L157.47,162.45L174.04,162.45L182.33,85.5L190.62,85.5L198.9,162.45L207.19,85.5L215.48,162.45L223.77,85.5L232.05,162.45L240.34,8.55L248.63,85.5L256.92,8.55L265.21,143.21L273.49,85.5L281.78,85.5L290.07,85.5L298.36,162.45L306.64,85.5L314.93,85.5L323.22,85.5L331.51,162.45L339.79,162.45L348.08,123.98L356.37,162.45L364.66,8.55L372.95,8.55L381.23,162.45L389.52,8.55L397.81,85.5L406.1,85.5L414.38,162.45L422.67,162.45L430.96,85.5L439.25,162.45L447.53,162.45L455.82,85.5L464.11,162.45L472.4,85.5L480.68,85.5L488.97,162.45L497.26,143.21L505.55,85.5L513.84,85.5L546.99,85.5L555.27,104.74L563.56,162.45L571.85,8.55L588.42,162.45L596.71,162.45L605,85.5" style="vector-effect: non-scaling-stroke; fill: none; stroke: rgb(192, 192, 192); stroke-opacity: 1; stroke-width: 2px; opacity: 1;"/></g><g class="points"/><g class="text"/></g><g class="trace scatter trace25697d" style="stroke-miterlimit: 2; opacity: 0.8;"><g class="fills"/><g class="errorbars"/><g class="lines"><path class="js-line" d="M0,162.45L273.49,162.45L281.78,85.5L290.07,162.45L298.36,162.45L314.93,162.45L323.22,85.5L331.51,162.45L339.79,162.45L372.95,162.45L381.23,85.5L389.52,162.45L397.81,162.45L455.82,162.45L464.11,85.5L472.4,162.45L480.68,162.45L605,162.45" style="vector-effect: non-scaling-stroke; fill: none; stroke: rgb(196, 30, 58); stroke-opacity: 1; stroke-width: 2px; opacity: 1;"/></g><g class="points"/><g class="text"/></g><g class="trace scatter tracefb9308" style="stroke-miterlimit: 2; opacity: 0.8;"><g class="fills"/><g class="errorbars"/><g class="lines"><path class="js-line" d="M0,85.5L8.29,162.45L16.58,162.45L41.44,162.45L49.73,85.5L58.01,162.45L66.3,162.45L74.59,85.5L82.88,85.5L91.16,162.45L99.45,162.45L107.74,162.45L116.03,85.5L124.32,85.5L132.6,162.45L157.47,162.45L165.75,85.5L174.04,85.5L182.33,162.45L190.62,85.5L198.9,85.5L232.05,85.5L240.34,162.45L248.63,162.45L256.92,85.5L265.21,162.45L273.49,162.45L290.07,162.45L298.36,8.55L306.64,162.45L314.93,162.45L323.22,162.45L331.51,85.5L339.79,8.55L348.08,162.45L356.37,85.5L364.66,162.45L372.95,85.5L381.23,85.5L389.52,162.45L397.81,162.45L406.1,162.45L414.38,85.5L422.67,85.5L430.96,162.45L439.25,162.45L447.53,85.5L455.82,162.45L464.11,162.45L513.84,162.45L522.12,85.5L530.41,85.5L538.7,162.45L555.27,162.45L563.56,85.5L571.85,162.45L580.14,162.45L605,162.45" style="vector-effect: non-scaling-stroke; fill: none; stroke: rgb(79, 121, 66); stroke-opacity: 1; stroke-width: 2px; opacity: 1;"/></g><g class="points"/><g class="text"/></g><g class="trace scatter trace204b4a" style="stroke-miterlimit: 2; opacity: 0.8;"><g class="fills"/><g class="errorbars"/><g class="lines"><path class="js-line" d="M0,162.45L82.88,162.45L91.16,85.5L99.45,162.45L107.74,162.45L132.6,162.45L140.89,85.5L149.18,162.45L157.47,85.5L165.75,162.45L174.04,162.45L232.05,162.45L240.34,85.5L248.63,162.45L256.92,162.45L430.96,162.45L439.25,85.5L447.53,162.45L455.82,162.45L464.11,162.45L472.4,85.5L480.68,162.45L488.97,85.5L497.26,162.45L505.55,85.5L513.84,162.45L522.12,85.5L530.41,162.45L538.7,162.45L580.14,162.45L588.42,85.5L596.71,85.5L605,162.45" style="vector-effect: non-scaling-stroke; fill: none; stroke: rgb(34, 139, 34); stroke-opacity: 1; stroke-width: 2px; opacity: 1;"/></g><g class="points"/><g class="text"/></g></g></g><g class="overplot"/><path class="xlines-above crisp" style="fill: none;" d="M0,0"/><path class="ylines-above crisp" style="fill: none;" d="M0,0"/><g class="overlines-above"/><g class="xaxislayer-above"><g class="xtick"><text text-anchor="start" x="0" y="284" transform="translate(80,0) rotate(90,0,278)" style="font-family: 'Open Sans', verdana, arial, sans-serif; font-size: 12px; fill: rgb(42, 63, 95); fill-opacity: 1; white-space: pre;">August 04, 2019</text></g><g class="xtick"><text text-anchor="start" x="0" y="284" transform="translate(96.58,0) rotate(90,0,278)" style="font-family: 'Open Sans', verdana, arial, sans-serif; font-size: 12px; fill: rgb(42, 63, 95); fill-opacity: 1; white-space: pre;">September 03, 2019</text></g><g class="xtick"><text text-anchor="start" x="0" y="284" transform="translate(113.15,0) rotate(90,0,278)" style="font-family: 'Open Sans', verdana, arial, sans-serif; font-size: 12px; fill: rgb(42, 63, 95); fill-opacity: 1; white-space: pre;">September 27, 2019</text></g><g class="xtick"><text text-anchor="start" x="0" y="284" transform="translate(129.73,0) rotate(90,0,278)" style="font-family: 'Open Sans', verdana, arial, sans-serif; font-size: 12px; fill: rgb(42, 63, 95); fill-opacity: 1; white-space: pre;">October 11, 2019</text></g><g class="xtick"><text text-anchor="start" x="0" y="284" transform="translate(146.3,0) rotate(90,0,278)" style="font-family: 'Open Sans', verdana, arial, sans-serif; font-size: 12px; fill: rgb(42, 63, 95); fill-opacity: 1; white-space: pre;">October 14, 2019</text></g><g class="xtick"><text text-anchor="start" x="0" y="284" transform="translate(162.88,0) rotate(90,0,278)" style="font-family: 'Open Sans', verdana, arial, sans-serif; font-size: 12px; fill: rgb(42, 63, 95); fill-opacity: 1; white-space: pre;">October 16, 2019</text></g><g class="xtick"><text text-anchor="start" x="0" y="284" transform="translate(179.45,0) rotate(90,0,278)" style="font-family: 'Open Sans', verdana, arial, sans-serif; font-size: 12px; fill: rgb(42, 63, 95); fill-opacity: 1; white-space: pre;">October 21, 2019</text></g><g class="xtick"><text text-anchor="start" x="0" y="284" transform="translate(196.03,0) rotate(90,0,278)" style="font-family: 'Open Sans', verdana, arial, sans-serif; font-size: 12px; fill: rgb(42, 63, 95); fill-opacity: 1; white-space: pre;">October 29, 2019</text></g><g class="xtick"><text text-anchor="start" x="0" y="284" transform="translate(212.6,0) rotate(90,0,278)" style="font-family: 'Open Sans', verdana, arial, sans-serif; font-size: 12px; fill: rgb(42, 63, 95); fill-opacity: 1; white-space: pre;">November 03, 2019</text></g><g class="xtick"><text text-anchor="start" x="0" y="284" transform="translate(229.18,0) rotate(90,0,278)" style="font-family: 'Open Sans', verdana, arial, sans-serif; font-size: 12px; fill: rgb(42, 63, 95); fill-opacity: 1; white-space: pre;">November 10, 2019</text></g><g class="xtick"><text text-anchor="start" x="0" y="284" transform="translate(245.75,0) rotate(90,0,278)" style="font-family: 'Open Sans', verdana, arial, sans-serif; font-size: 12px; fill: rgb(42, 63, 95); fill-opacity: 1; white-space: pre;">November 22, 2019</text></g><g class="xtick"><text text-anchor="start" x="0" y="284" transform="translate(262.33000000000004,0) rotate(90,0,278)" style="font-family: 'Open Sans', verdana, arial, sans-serif; font-size: 12px; fill: rgb(42, 63, 95); fill-opacity: 1; white-space: pre;">November 25, 2019</text></g><g class="xtick"><text text-anchor="start" x="0" y="284" transform="translate(278.9,0) rotate(90,0,278)" style="font-family: 'Open Sans', verdana, arial, sans-serif; font-size: 12px; fill: rgb(42, 63, 95); fill-opacity: 1; white-space: pre;">December 04, 2019</text></g><g class="xtick"><text text-anchor="start" x="0" y="284" transform="translate(295.48,0) rotate(90,0,278)" style="font-family: 'Open Sans', verdana, arial, sans-serif; font-size: 12px; fill: rgb(42, 63, 95); fill-opacity: 1; white-space: pre;">December 07, 2019</text></g><g class="xtick"><text text-anchor="start" x="0" y="284" transform="translate(312.05,0) rotate(90,0,278)" style="font-family: 'Open Sans', verdana, arial, sans-serif; font-size: 12px; fill: rgb(42, 63, 95); fill-opacity: 1; white-space: pre;">December 09, 2019</text></g><g class="xtick"><text text-anchor="start" x="0" y="284" transform="translate(328.63,0) rotate(90,0,278)" style="font-family: 'Open Sans', verdana, arial, sans-serif; font-size: 12px; fill: rgb(42, 63, 95); fill-opacity: 1; white-space: pre;">December 15, 2019</text></g><g class="xtick"><text text-anchor="start" x="0" y="284" transform="translate(345.21,0) rotate(90,0,278)" style="font-family: 'Open Sans', verdana, arial, sans-serif; font-size: 12px; fill: rgb(42, 63, 95); fill-opacity: 1; white-space: pre;">December 18, 2019</text></g><g class="xtick"><text text-anchor="start" x="0" y="284" transform="translate(361.78,0) rotate(90,0,278)" style="font-family: 'Open Sans', verdana, arial, sans-serif; font-size: 12px; fill: rgb(42, 63, 95); fill-opacity: 1; white-space: pre;">December 20, 2019</text></g><g class="xtick"><text text-anchor="start" x="0" y="284" transform="translate(378.36,0) rotate(90,0,278)" style="font-family: 'Open Sans', verdana, arial, sans-serif; font-size: 12px; fill: rgb(42, 63, 95); fill-opacity: 1; white-space: pre;">December 22, 2019</text></g><g class="xtick"><text text-anchor="start" x="0" y="284" transform="translate(394.93,0) rotate(90,0,278)" style="font-family: 'Open Sans', verdana, arial, sans-serif; font-size: 12px; fill: rgb(42, 63, 95); fill-opacity: 1; white-space: pre;">December 26, 2019</text></g><g class="xtick"><text text-anchor="start" x="0" y="284" transform="translate(411.51,0) rotate(90,0,278)" style="font-family: 'Open Sans', verdana, arial, sans-serif; font-size: 12px; fill: rgb(42, 63, 95); fill-opacity: 1; white-space: pre;">December 30, 2019</text></g><g class="xtick"><text text-anchor="start" x="0" y="284" transform="translate(428.08,0) rotate(90,0,278)" style="font-family: 'Open Sans', verdana, arial, sans-serif; font-size: 12px; fill: rgb(42, 63, 95); fill-opacity: 1; white-space: pre;">January 02, 2020</text></g><g class="xtick"><text text-anchor="start" x="0" y="284" transform="translate(444.66,0) rotate(90,0,278)" style="font-family: 'Open Sans', verdana, arial, sans-serif; font-size: 12px; fill: rgb(42, 63, 95); fill-opacity: 1; white-space: pre;">January 08, 2020</text></g><g class="xtick"><text text-anchor="start" x="0" y="284" transform="translate(461.23,0) rotate(90,0,278)" style="font-family: 'Open Sans', verdana, arial, sans-serif; font-size: 12px; fill: rgb(42, 63, 95); fill-opacity: 1; white-space: pre;">January 11, 2020</text></g><g class="xtick"><text text-anchor="start" x="0" y="284" transform="translate(477.81,0) rotate(90,0,278)" style="font-family: 'Open Sans', verdana, arial, sans-serif; font-size: 12px; fill: rgb(42, 63, 95); fill-opacity: 1; white-space: pre;">January 13, 2020</text></g><g class="xtick"><text text-anchor="start" x="0" y="284" transform="translate(494.38,0) rotate(90,0,278)" style="font-family: 'Open Sans', verdana, arial, sans-serif; font-size: 12px; fill: rgb(42, 63, 95); fill-opacity: 1; white-space: pre;">January 18, 2020</text></g><g class="xtick"><text text-anchor="start" x="0" y="284" transform="translate(510.96,0) rotate(90,0,278)" style="font-family: 'Open Sans', verdana, arial, sans-serif; font-size: 12px; fill: rgb(42, 63, 95); fill-opacity: 1; white-space: pre;">January 21, 2020</text></g><g class="xtick"><text text-anchor="start" x="0" y="284" transform="translate(527.53,0) rotate(90,0,278)" style="font-family: 'Open Sans', verdana, arial, sans-serif; font-size: 12px; fill: rgb(42, 63, 95); fill-opacity: 1; white-space: pre;">January 23, 2020</text></g><g class="xtick"><text text-anchor="start" x="0" y="284" transform="translate(544.11,0) rotate(90,0,278)" style="font-family: 'Open Sans', verdana, arial, sans-serif; font-size: 12px; fill: rgb(42, 63, 95); fill-opacity: 1; white-space: pre;">January 26, 2020</text></g><g class="xtick"><text text-anchor="start" x="0" y="284" transform="translate(560.6800000000001,0) rotate(90,0,278)" style="font-family: 'Open Sans', verdana, arial, sans-serif; font-size: 12px; fill: rgb(42, 63, 95); fill-opacity: 1; white-space: pre;">January 28, 2020</text></g><g class="xtick"><text text-anchor="start" x="0" y="284" transform="translate(577.26,0) rotate(90,0,278)" style="font-family: 'Open Sans', verdana, arial, sans-serif; font-size: 12px; fill: rgb(42, 63, 95); fill-opacity: 1; white-space: pre;">January 31, 2020</text></g><g class="xtick"><text text-anchor="start" x="0" y="284" transform="translate(593.84,0) rotate(90,0,278)" style="font-family: 'Open Sans', verdana, arial, sans-serif; font-size: 12px; fill: rgb(42, 63, 95); fill-opacity: 1; white-space: pre;">February 03, 2020</text></g><g class="xtick"><text text-anchor="start" x="0" y="284" transform="translate(610.41,0) rotate(90,0,278)" style="font-family: 'Open Sans', verdana, arial, sans-serif; font-size: 12px; fill: rgb(42, 63, 95); fill-opacity: 1; white-space: pre;">February 16, 2020</text></g><g class="xtick"><text text-anchor="start" x="0" y="284" transform="translate(626.99,0) rotate(90,0,278)" style="font-family: 'Open Sans', verdana, arial, sans-serif; font-size: 12px; fill: rgb(42, 63, 95); fill-opacity: 1; white-space: pre;">March 02, 2020</text></g><g class="xtick"><text text-anchor="start" x="0" y="284" transform="translate(643.56,0) rotate(90,0,278)" style="font-family: 'Open Sans', verdana, arial, sans-serif; font-size: 12px; fill: rgb(42, 63, 95); fill-opacity: 1; white-space: pre;">March 06, 2020</text></g><g class="xtick"><text text-anchor="start" x="0" y="284" transform="translate(660.14,0) rotate(90,0,278)" style="font-family: 'Open Sans', verdana, arial, sans-serif; font-size: 12px; fill: rgb(42, 63, 95); fill-opacity: 1; white-space: pre;">March 17, 2020</text></g><g class="xtick"><text text-anchor="start" x="0" y="284" transform="translate(676.71,0) rotate(90,0,278)" style="font-family: 'Open Sans', verdana, arial, sans-serif; font-size: 12px; fill: rgb(42, 63, 95); fill-opacity: 1; white-space: pre;">March 20, 2020</text></g></g><g class="yaxislayer-above"><g class="ytick"><text text-anchor="end" x="79" y="4.199999999999999" transform="translate(0,262.45)" style="font-family: 'Open Sans', verdana, arial, sans-serif; font-size: 12px; fill: rgb(42, 63, 95); fill-opacity: 1; white-space: pre;">0</text></g><g class="ytick"><text text-anchor="end" x="79" y="4.199999999999999" transform="translate(0,223.98000000000002)" style="font-family: 'Open Sans', verdana, arial, sans-serif; font-size: 12px; fill: rgb(42, 63, 95); fill-opacity: 1; white-space: pre;">2</text></g><g class="ytick"><text text-anchor="end" x="79" y="4.199999999999999" transform="translate(0,185.5)" style="font-family: 'Open Sans', verdana, arial, sans-serif; font-size: 12px; fill: rgb(42, 63, 95); fill-opacity: 1; white-space: pre;">4</text></g><g class="ytick"><text text-anchor="end" x="79" y="4.199999999999999" transform="translate(0,147.03)" style="font-family: 'Open Sans', verdana, arial, sans-serif; font-size: 12px; fill: rgb(42, 63, 95); fill-opacity: 1; white-space: pre;">6</text></g><g class="ytick"><text text-anchor="end" x="79" y="4.199999999999999" transform="translate(0,108.55)" style="font-family: 'Open Sans', verdana, arial, sans-serif; font-size: 12px; fill: rgb(42, 63, 95); fill-opacity: 1; white-space: pre;">8</text></g></g><g class="overaxes-above"/></g></g><g class="polarlayer"/><g class="ternarylayer"/><g class="geolayer"/><g class="funnelarealayer"/><g class="pielayer"/><g class="treemaplayer"/><g class="sunburstlayer"/><g class="glimages"/><defs id="topdefs-02e891"><g class="clips"/><clipPath id="legend02e891"><rect width="141" height="105" x="0" y="0"/></clipPath></defs><g class="layer-above"><g class="imagelayer"/><g class="shapelayer"/></g><g class="infolayer"><g class="legend" pointer-events="all" transform="translate(697.1, 100)"><rect class="bg" shape-rendering="crispEdges" style="stroke: rgb(68, 68, 68); stroke-opacity: 1; fill: rgb(255, 255, 255); fill-opacity: 1; stroke-width: 0px;" width="141" height="105" x="0" y="0"/><g class="scrollbox" transform="translate(0, 0)" clip-path="url('#legend02e891')"><g class="groups"><g class="traces" style="opacity: 1;" transform="translate(0, 14.5)"><text class="legendtext user-select-none" text-anchor="start" x="40" y="4.680000000000001" style="font-family: 'Open Sans', verdana, arial, sans-serif; font-size: 12px; fill: rgb(42, 63, 95); fill-opacity: 1; white-space: pre;">Negative</text><g class="layers" style="opacity: 0.8;"><g class="legendfill"/><g class="legendlines"><path class="js-line" d="M5,0h30" style="fill: none; stroke: rgb(255, 0, 0); stroke-opacity: 1; stroke-width: 2px;"/></g><g class="legendsymbols"><g class="legendpoints"/></g></g><rect class="legendtoggle" pointer-events="all" x="0" y="-9.5" width="135.703125" height="19" style="cursor: pointer; fill: rgb(0, 0, 0); fill-opacity: 0;"/></g><g class="traces" style="opacity: 1;" transform="translate(0, 33.5)"><text class="legendtext user-select-none" text-anchor="start" x="40" y="4.680000000000001" style="font-family: 'Open Sans', verdana, arial, sans-serif; font-size: 12px; fill: rgb(42, 63, 95); fill-opacity: 1; white-space: pre;">Neutral</text><g class="layers" style="opacity: 0.8;"><g class="legendfill"/><g class="legendlines"><path class="js-line" d="M5,0h30" style="fill: none; stroke: rgb(192, 192, 192); stroke-opacity: 1; stroke-width: 2px;"/></g><g class="legendsymbols"><g class="legendpoints"/></g></g><rect class="legendtoggle" pointer-events="all" x="0" y="-9.5" width="135.703125" height="19" style="cursor: pointer; fill: rgb(0, 0, 0); fill-opacity: 0;"/></g><g class="traces" style="opacity: 1;" transform="translate(0, 52.5)"><text class="legendtext user-select-none" text-anchor="start" x="40" y="4.680000000000001" style="font-family: 'Open Sans', verdana, arial, sans-serif; font-size: 12px; fill: rgb(42, 63, 95); fill-opacity: 1; white-space: pre;">Partially Negative</text><g class="layers" style="opacity: 0.8;"><g class="legendfill"/><g class="legendlines"><path class="js-line" d="M5,0h30" style="fill: none; stroke: rgb(196, 30, 58); stroke-opacity: 1; stroke-width: 2px;"/></g><g class="legendsymbols"><g class="legendpoints"/></g></g><rect class="legendtoggle" pointer-events="all" x="0" y="-9.5" width="135.703125" height="19" style="cursor: pointer; fill: rgb(0, 0, 0); fill-opacity: 0;"/></g><g class="traces" style="opacity: 1;" transform="translate(0, 71.5)"><text class="legendtext user-select-none" text-anchor="start" x="40" y="4.680000000000001" style="font-family: 'Open Sans', verdana, arial, sans-serif; font-size: 12px; fill: rgb(42, 63, 95); fill-opacity: 1; white-space: pre;">Partially Positive</text><g class="layers" style="opacity: 0.8;"><g class="legendfill"/><g class="legendlines"><path class="js-line" d="M5,0h30" style="fill: none; stroke: rgb(79, 121, 66); stroke-opacity: 1; stroke-width: 2px;"/></g><g class="legendsymbols"><g class="legendpoints"/></g></g><rect class="legendtoggle" pointer-events="all" x="0" y="-9.5" width="135.703125" height="19" style="cursor: pointer; fill: rgb(0, 0, 0); fill-opacity: 0;"/></g><g class="traces" style="opacity: 1;" transform="translate(0, 90.5)"><text class="legendtext user-select-none" text-anchor="start" x="40" y="4.680000000000001" style="font-family: 'Open Sans', verdana, arial, sans-serif; font-size: 12px; fill: rgb(42, 63, 95); fill-opacity: 1; white-space: pre;">Positive</text><g class="layers" style="opacity: 0.8;"><g class="legendfill"/><g class="legendlines"><path class="js-line" d="M5,0h30" style="fill: none; stroke: rgb(34, 139, 34); stroke-opacity: 1; stroke-width: 2px;"/></g><g class="legendsymbols"><g class="legendpoints"/></g></g><rect class="legendtoggle" pointer-events="all" x="0" y="-9.5" width="135.703125" height="19" style="cursor: pointer; fill: rgb(0, 0, 0); fill-opacity: 0;"/></g></g></g><rect class="scrollbar" rx="20" ry="3" width="0" height="0" style="fill: rgb(128, 139, 164); fill-opacity: 1;" x="0" y="0"/></g><g class="g-gtitle"/><g class="g-xtitle"/><g class="g-ytitle"/></g></svg>